<svg width="603" height="606" viewBox="0 0 603 606" fill="none" xmlns="http://www.w3.org/2000/svg">
<path d="M355.66 216.331C358.772 212.974 363.709 212.894 366.892 216.149C369.94 219.265 370.38 224.424 367.914 228.131L280.933 358.789C274.143 368.988 261.076 370.93 252.138 363.068C242.641 354.711 241.946 339.006 250.657 329.607L355.66 216.331Z" fill="white"/>
<path fill-rule="evenodd" clip-rule="evenodd" d="M10.652 225.571C51.7636 65.0799 215.582 -31.6729 376.551 9.46825C537.519 50.6095 634.683 214.065 593.572 374.556C552.461 535.048 388.642 631.8 227.673 590.659C195.165 582.35 165.261 569.048 138.57 551.794L17.6804 604.89C7.28537 609.455 -2.76357 599.204 0.694608 587.564L41.5756 449.958L41.6643 449.941C3.70514 384.416 -9.60083 304.634 10.652 225.571ZM427.698 153.809C429.444 136.082 412.614 123.432 398.352 131.752L129.62 288.541C114.157 297.565 115.656 322.586 132.055 329.178L194.977 354.471C200.33 356.624 203.859 362.294 203.777 368.604L203.25 409.334C202.747 448.343 246.315 466.912 269.693 437.654L294.589 406.494C298.243 401.921 304.047 400.277 309.221 402.35L375.521 428.905C387.786 433.816 400.995 424.686 402.412 410.315L427.698 153.809Z" fill="white"/>
</svg>
